<?xml version="1.0" encoding="utf-8"?>
<!-- Generator: Adobe Illustrator 22.0.1, SVG Export Plug-In . SVG Version: 6.00 Build 0)  -->
<svg version="1.1" id="Layer_1" xmlns="http://www.w3.org/2000/svg" xmlns:xlink="http://www.w3.org/1999/xlink" x="0px" y="0px"
	 viewBox="0 0 29 29" style="enable-background:new 0 0 29 29;" xml:space="preserve">
<g>
	<path d="M12.5563097,19.6132965c0-0.4428425,0.1258478-0.7883301,0.3799181-1.0352783
		C13.1891117,18.3310719,13.5440979,18.2075977,14,18.2075977s0.8097019,0.1234741,1.0637722,0.3704205
		c0.252883,0.2469482,0.3799181,0.5865002,0.3799181,1.016283c0,0.4440308-0.1270351,0.788332-0.3799181,1.0352783
		C14.8097019,20.8765259,14.4559021,21,14,21s-0.8108883-0.1234741-1.0637722-0.3704205
		C12.6821575,20.3826332,12.5563097,20.0442677,12.5563097,19.6132965z M12.7462683,7h2.5074635l-0.3609228,9.7259159h-1.7856178
		L12.7462683,7z"/>
</g>
<path d="M14,2.8284199L25.1715794,14L14,25.1715794L2.8284199,14L14,2.8284199 M14,0L0,14l14,14l14-14L14,0L14,0z"/>
</svg>
