<?xml version="1.0" encoding="utf-8"?>
<!-- Generator: Adobe Illustrator 21.1.0, SVG Export Plug-In . SVG Version: 6.00 Build 0)  -->
<svg version="1.1" id="레이어_1" xmlns="http://www.w3.org/2000/svg" xmlns:xlink="http://www.w3.org/1999/xlink" x="0px"
	 y="0px" viewBox="0 0 39 50" style="enable-background:new 0 0 39 50;" xml:space="preserve">
<style type="text/css">
	.st0{fill-rule:evenodd;clip-rule:evenodd;}
</style>
<g>
	<g>
		<path class="st0" d="M25.1,0L2,0C1.7,0,1.4,0.1,1.2,0.2C1,0.3,0.8,0.4,0.6,0.6C0.5,0.7,0.4,0.8,0.3,0.9C0.1,1.2,0,1.6,0,2v44
			c0,1.1,0.9,2,2,2h33c1.1,0,2-0.9,2-2V13l0-1L25.1,0z M35,45c0,0.6-0.4,1-1,1H3c-0.5,0-1-0.4-1-1V3c0-0.6,0.4-1,1-1h20l0,13l12,0
			V45z M25,13l0-11.2L35.2,13L25,13z M7,40h23v-2H7V40z M7,34h23v-2H7V34z M7,28h23v-2H7V28z M7,22h23v-2H7V22z M19,14H7v2h12V14z
			 M19,8H7v2h12V8z"/>
	</g>
</g>
</svg>
