<?xml version="1.0" encoding="utf-8"?>
<!-- Generator: Adobe Illustrator 16.0.0, SVG Export Plug-In . SVG Version: 6.00 Build 0)  -->
<!DOCTYPE svg PUBLIC "-//W3C//DTD SVG 1.1//EN" "http://www.w3.org/Graphics/SVG/1.1/DTD/svg11.dtd">
<svg version="1.1" id="search" xmlns="http://www.w3.org/2000/svg" xmlns:xlink="http://www.w3.org/1999/xlink" viewBox="0 0 18 18">
<path fill="#1428a0" d="M13.858,12.478c1.016-1.31,1.622-2.953,1.622-4.738C15.48,3.465,12.015,0,7.74,0S0.001,3.465,0.001,7.739
	s3.465,7.74,7.739,7.74c1.445,0,2.797-0.397,3.955-1.087l2.705,3.606H18L13.858,12.478z M10.17,12.359
	c-0.726,0.382-1.552,0.6-2.43,0.6c-2.883,0-5.22-2.337-5.22-5.22s2.337-5.22,5.22-5.22s5.22,2.337,5.22,5.22
	c0,1.144-0.368,2.2-0.992,3.06C11.498,11.447,10.883,11.983,10.17,12.359"/>
</svg>
