<?xml version="1.0" encoding="utf-8"?>
<!-- Generator: Adobe Illustrator 22.0.1, SVG Export Plug-In . SVG Version: 6.00 Build 0)  -->
<svg version="1.1" id="Layer_1" xmlns="http://www.w3.org/2000/svg" xmlns:xlink="http://www.w3.org/1999/xlink" 
	 viewBox="0 0 42 42">
<g>
	<path d="M39,5.5c-0.5,0-1,0.4-1,1v5.9C35,4.9,27.8,0,19.7,0C8.9,0,0,8.9,0,19.7c0,10.9,8.9,19.7,19.7,19.7
		c8.4,0,15.9-5.4,18.7-13.3c0.2-0.5-0.1-1.1-0.6-1.3c-0.5-0.2-1.1,0.1-1.3,0.6c-2.5,7.2-9.2,12-16.8,12C9.9,37.5,2,29.5,2,19.7
		C2,9.9,9.9,2,19.7,2c7.5,0,14.1,4.7,16.7,11.6h-5.5c-0.5,0-1,0.4-1,1s0.4,1,1,1H39c0.5,0,1-0.4,1-1V6.5C40,5.9,39.6,5.5,39,5.5z"/>
	<path d="M26.2,12.9l-0.1-0.1c-0.4-0.4-1-0.4-1.4,0l-5.4,5.4l-5.4-5.4c-0.4-0.4-1-0.4-1.4,0l-0.1,0.1c-0.4,0.4-0.4,1,0,1.4l5.4,5.4
		l-5.4,5.4c-0.4,0.4-0.4,1,0,1.4l0.1,0.1c0.4,0.4,1,0.4,1.4,0l5.4-5.4l5.4,5.4c0.4,0.4,1,0.4,1.4,0l0.1-0.1c0.4-0.4,0.4-1,0-1.4
		l-5.4-5.4l5.4-5.4C26.6,13.9,26.6,13.3,26.2,12.9z"/>
</g>
</svg>
