<?xml version="1.0" encoding="utf-8"?>
<!-- Generator: Adobe Illustrator 22.0.1, SVG Export Plug-In . SVG Version: 6.00 Build 0)  -->
<svg version="1.1" id="Layer_1" xmlns="http://www.w3.org/2000/svg" xmlns:xlink="http://www.w3.org/1999/xlink" x="0px" y="0px"
	 viewBox="0 0 25 21" style="enable-background:new 0 0 25 21;" xml:space="preserve">
<g id="Layer_2_1_" style="display:none;">
	
		<line style="display:inline;opacity:0.3;fill:none;stroke:#000000;stroke-width:0.1;stroke-miterlimit:10;enable-background:new    ;" x1="12" y1="-2" x2="12" y2="22"/>
	
		<line style="display:inline;opacity:0.3;fill:none;stroke:#000000;stroke-width:0.1;stroke-miterlimit:10;enable-background:new    ;" x1="0" y1="10" x2="24" y2="10"/>
	
		<line style="display:inline;opacity:0.3;fill:none;stroke:#000000;stroke-width:0.1;stroke-miterlimit:10;enable-background:new    ;" x1="0" y1="-2" x2="24" y2="22"/>
	
		<line style="display:inline;opacity:0.3;fill:none;stroke:#000000;stroke-width:0.1;stroke-miterlimit:10;enable-background:new    ;" x1="0" y1="22" x2="24" y2="-2"/>
	
		<path style="display:inline;opacity:0.3;fill:none;stroke:#000000;stroke-width:0.1;stroke-miterlimit:10;enable-background:new    ;" d="
		M11.9696169,22c0-6.6274166,5.3725824-12,12.000001-12"/>
	
		<path style="display:inline;opacity:0.3;fill:none;stroke:#000000;stroke-width:0.1;stroke-miterlimit:10;enable-background:new    ;" d="
		M0,10c6.6274171,0,12,5.3725834,12,12"/>
	
		<path style="display:inline;opacity:0.3;fill:none;stroke:#000000;stroke-width:0.1;stroke-miterlimit:10;enable-background:new    ;" d="
		M23.9696178,10c-6.6274185,0-12.000001-5.3725829-12.000001-12"/>
	
		<path style="display:inline;opacity:0.3;fill:none;stroke:#000000;stroke-width:0.1;stroke-miterlimit:10;enable-background:new    ;" d="
		M12-2c0,6.6274171-5.3725829,12-12,12"/>
	
		<circle style="display:inline;opacity:0.3;fill:none;stroke:#000000;stroke-width:0.1;stroke-miterlimit:10;enable-background:new    ;" cx="12.0101223" cy="10" r="12"/>
</g>
<g>
	<polygon points="7.5,6.9361572 12,12.3215942 16.5,6.9361572 13.25,6.9361572 13.25,0.0090942 10.75,0.0090942 10.75,6.9361572 	
		"/>
	<polygon points="24,16.3215942 24,2.4465942 14.75,2.4465942 14.75,3.9465942 22.5154419,3.9465942 22.5154419,14.8215942 
		1.4845581,14.8215942 1.4845581,3.9465942 9.25,3.9465942 9.25,2.4465942 0,2.4465942 0,16.3215942 11.25,16.3215942 11.25,18.5 
		4,18.5 4,20 20,20 20,18.5 12.75,18.5 12.75,16.3215942 	"/>
</g>
</svg>
